<svg width="40" height="40" viewBox="0 0 40 40" fill="none" xmlns="http://www.w3.org/2000/svg">
<g clip-path="url(#clip0_2562_2126)">
<circle cx="20" cy="20" r="19" stroke="#CCCCCC" stroke-width="2"/>
<path d="M30.8333 31.6663C30.8333 29.8573 30.8333 28.9527 30.6091 28.2167C30.1041 26.5595 28.8015 25.2627 27.1369 24.76C26.3976 24.5367 25.489 24.5367 23.6719 24.5367H17.1615C15.3443 24.5367 14.4357 24.5367 13.6964 24.76C12.0318 25.2627 10.7292 26.5595 10.2243 28.2167C10 28.9527 10 29.8573 10 31.6663M26.276 14.1663C26.276 17.388 23.6527 19.9997 20.4167 19.9997C17.1806 19.9997 14.5573 17.388 14.5573 14.1663C14.5573 10.9447 17.1806 8.33301 20.4167 8.33301C23.6527 8.33301 26.276 10.9447 26.276 14.1663Z" stroke="#CCCCCC" stroke-width="2" stroke-linecap="round" stroke-linejoin="round"/>
</g>
<rect x="0.375" y="0.375" width="39.25" height="39.25" rx="19.625" stroke="#CCCCCC" stroke-width="0.75"/>
<defs>
<clipPath id="clip0_2562_2126">
<rect width="40" height="40" rx="20" fill="white"/>
</clipPath>
</defs>
</svg>
