<?xml version="1.0" encoding="UTF-8"?>
<svg id="Layer_1" data-name="Layer 1" xmlns="http://www.w3.org/2000/svg" viewBox="0 0 1080 1080">
  <defs>
    <style>
      .cls-1 {
        fill: #ffde00;
      }

      .cls-2 {
        fill: #1c1c1c;
      }
    </style>
  </defs>
  <polygon class="cls-1" points="810 72.35 270 72.35 0 540 270 1007.65 810 1007.65 1080 540 810 72.35"/>
  <path class="cls-2" d="M526.82,814.71l90.46-14.09,76.75-47.56,42.04-88.68-49.79-126.43,44.27-118.03-38.72-90.49-81.63-57.62-64.3-6.91-43.71.11.33,118.85-141.37,1.63-1,107.8,4.02,105.59-.45,105.76-1.4,106.17,82.42,4.29,82.08-.39ZM588.68,404.69l16.89,33.65-12.72,36.85-90.5,14.27.17-105.6,86.16,20.83ZM595.13,670.62l-93.54,21.9-3.66-101.82,102.77,26.37,6.84,31.18-12.41,22.37Z"/>
</svg>